HIERARCHY
ROOT Hips
{
  OFFSET 0 0 0
  CHANNELS 6 Xposition Yposition Zposition Zrotation Yrotation Xrotation
  JOINT LeftThigh
  {
    OFFSET 8.409438 0 -5.917753
    CHANNELS 3 Zrotation Yrotation Xrotation
    JOINT LeftLeg
    {
      OFFSET 0 0 -42.358652
      CHANNELS 3 Zrotation Yrotation Xrotation
      JOINT LeftFoot
      {
        OFFSET 0 0 -39.357303
        CHANNELS 3 Zrotation Yrotation Xrotation
      }
    }
  }
  JOINT RightThigh
  {
    OFFSET -8.409438 0 -5.917753
    CHANNELS 3 Zrotation Yrotation Xrotation
    JOINT RightLeg
    {
      OFFSET 0 0 -42.358652
      CHANNELS 3 Zrotation Yrotation Xrotation
      JOINT RightFoot
      {
        OFFSET 0 0 -39.357303
        CHANNELS 3 Zrotation Yrotation Xrotation
      }
    }
  }
  JOINT SpineLow
  {
    OFFSET 0 0 4.719101
    CHANNELS 3 Zrotation Yrotation Xrotation
    JOINT SpineMid
    {
      OFFSET 0 0 12.899191
      CHANNELS 3 Zrotation Yrotation Xrotation
      JOINT Chest
      {
        OFFSET 0 0 12.899191
        CHANNELS 3 Zrotation Yrotation Xrotation
        JOINT LeftShoulder
        {
          OFFSET 7.550562 1.41573 9.438202
          CHANNELS 3 Zrotation Yrotation Xrotation
          JOINT LeftArm
          {
            OFFSET 9.155056 0 4.247191
            CHANNELS 3 Zrotation Yrotation Xrotation
            JOINT LeftForearm
            {
              OFFSET 0 0 25.771955
              CHANNELS 3 Zrotation Yrotation Xrotation
              JOINT LeftHand
              {
                OFFSET 0 0 25.197169
                CHANNELS 3 Zrotation Yrotation Xrotation
              }
            }
          }
        }
        JOINT RightShoulder
        {
          OFFSET -7.550562 1.41573 9.438202
          CHANNELS 3 Zrotation Yrotation Xrotation
          JOINT RightArm
          {
            OFFSET -9.155056 0 4.247191
            CHANNELS 3 Zrotation Yrotation Xrotation
            JOINT RightForearm
            {
              OFFSET 0 0 -25.771955
              CHANNELS 3 Zrotation Yrotation Xrotation
              JOINT RightHand
              {
                OFFSET 0 0 -25.197169
                CHANNELS 3 Zrotation Yrotation Xrotation
              }
            }
          }
        }
        JOINT Neck
        {
          OFFSET 0 0 15.101124
          CHANNELS 3 Zrotation Yrotation Xrotation
          JOINT Head
          {
            OFFSET 0 0 11.325843
            CHANNELS 3 Zrotation Yrotation Xrotation
            End Site
            {
              OFFSET 0 0 14.157303
            }
          }
        }
      }
    }
  }
}
MOTION
Frames: 14
Frame Time: 0.01
0.0  101.685394  0.0  0.323048  0.785216  -102.328755  35.232454  -25.188421  0.106377  -7.427852  9.811578  32.553108  7.79731  4.067122  4.680017  -13.896462  14.682733  -9.803596  11.752315  0.566118  31.4011  3.874222  4.296414  -2.420535  -0.1965  -0.415361  1.967469  -0.570531  -1.118496  5.381688  -0.570531  -1.118496  5.381688  -13.988183  27.63733  6.950134  106.916929  67.233043  -174.828833  -30.214323  6.085975  100.700809  58.832152  -2.615583  -9.594498  13.473118  -13.47392  23.289478  76.814736  60.476825  -2.394373  -23.055398  -19.011747  -100.27708  63.1005  11.699186  -2.699269  7.564163  -0.373234  -2.669557  5.6716  -0.313033  -1.997904  
0.0  101.685394  0.0  0.459094  1.094811  -102.133514  35.263931  -25.0819  -0.310028  -7.804979  10.232746  32.899565  7.844627  4.064757  4.587427  -13.681868  14.656916  -10.075949  11.757835  0.666495  31.989575  3.513064  4.325168  -2.459072  -0.219069  -0.418294  1.957357  -0.632248  -1.12477  5.354456  -0.632248  -1.12477  5.354456  -14.103803  27.552998  6.759598  106.640249  67.605081  -175.083706  -30.249362  7.163627  100.958515  59.623551  -2.167482  -9.393399  13.755843  -13.422957  23.262858  76.100113  60.742663  -2.938022  -23.133919  -19.296997  -100.468883  62.206716  11.630485  -2.491677  7.748431  -0.209614  -2.722359  5.810521  -0.19177  -2.039498  
0.0  101.685394  0.0  0.553742  1.557918  -101.800464  35.278881  -24.872487  -0.928132  -8.251711  10.646057  33.250901  7.81506  4.056994  4.4829  -13.589492  14.60778  -10.320973  11.766446  0.79682  32.438862  3.249348  4.353749  -2.496817  -0.254789  -0.421086  1.933336  -0.729643  -1.129775  5.289426  -0.729643  -1.129775  5.289425  -14.186337  27.427105  6.510493  106.171294  67.966757  -175.399988  -30.361248  8.411653  101.068776  60.496452  -1.763667  -9.185304  13.880866  -13.381642  23.080778  75.775243  60.950128  -3.144047  -23.196524  -19.536086  -100.790821  61.842999  11.382719  -2.001697  7.910885  -0.055172  -2.834003  5.933059  -0.078084  -2.12521  
0.0  101.685394  0.0  0.577657  2.384518  -101.242  34.958212  -24.414391  -1.917767  -8.677589  11.081202  33.718543  7.952606  4.026731  4.498341  -13.643095  14.57917  -10.590276  11.355404  1.064515  32.685382  2.878742  4.340133  -2.546101  -0.317693  -0.432051  1.900503  -0.901789  -1.15515  5.200896  -0.901789  -1.15515  5.200896  -14.650988  27.286704  5.967835  105.743732  68.323347  -175.831321  -30.553507  9.749914  101.022889  61.348853  -1.412546  -8.967006  14.001117  -13.253894  22.791587  75.454734  61.316418  -3.286673  -23.350683  -19.679245  -101.141467  61.885656  10.934165  -1.218799  7.959303  0.111569  -3.070379  5.970215  0.043695  -2.3047  
0.0  101.685394  0.0  0.551468  3.749283  -100.567849  34.253954  -23.789993  -3.166989  -9.061965  11.464703  34.324746  8.30944  4.063482  4.739113  -14.034847  14.685931  -10.879689  10.706039  1.298548  32.797459  2.5924  4.339529  -2.581153  -0.44696  -0.437477  1.852951  -1.254523  -1.160711  5.073225  -1.254523  -1.160711  5.073225  -15.192036  27.173008  5.354072  105.005148  68.657068  -176.506941  -30.855596  10.931928  100.799283  62.045511  -1.006222  -8.830989  13.940518  -13.160565  22.336758  75.598176  61.680242  -2.994127  -23.535353  -19.7872  -101.576604  62.028127  10.220957  -0.259163  7.944101  0.240818  -3.346453  5.959597  0.137142  -2.513471  
0.0  101.685394  0.0  0.514171  5.680844  -99.990262  33.250567  -23.162356  -4.465931  -9.517459  11.842188  34.996286  8.230797  4.009253  4.672871  -14.817712  14.964678  -10.962625  9.889172  1.570168  32.716495  2.288101  4.373169  -2.613754  -0.634481  -0.435751  1.824632  -1.766184  -1.142355  4.998949  -1.766184  -1.142355  4.998949  -15.892187  27.01408  4.631481  104.220647  68.915878  -177.173077  -31.153724  11.96317  100.570176  62.618975  -0.475904  -8.8894  13.961964  -13.093617  21.803532  75.473615  62.139877  -2.676521  -23.645758  -19.922607  -102.170736  62.069831  9.268631  0.744006  7.822947  0.328012  -3.671379  5.869416  0.199056  -2.758261  
0.0  101.685394  0.0  0.369231  8.163213  -99.534554  32.193451  -22.737655  -5.815129  -10.188003  12.279399  35.542174  8.217082  3.97217  4.699161  -15.765967  15.130503  -10.624061  8.803064  2.098127  32.376247  2.198398  4.419329  -2.620912  -0.88167  -0.448996  1.810592  -2.44224  -1.160327  4.965159  -2.44224  -1.160327  4.965158  -16.795038  27.020333  3.843025  103.256317  69.158374  -178.03712  -31.337856  12.797392  100.379066  63.095187  0.130149  -9.129355  14.002802  -12.986149  21.145992  75.024011  62.533304  -2.443273  -23.600491  -20.174229  -102.893248  62.007659  8.245894  1.728276  7.590642  0.344643  -4.000774  5.69551  0.208835  -3.005402  
0.0  101.685394  0.0  0.029581  11.258897  -99.075445  31.14204  -22.509686  -7.304555  -11.105983  12.76023  35.779976  7.760507  3.846818  4.57383  -17.023383  15.189835  -10.035431  7.413267  2.713906  31.798089  1.840932  4.366161  -2.697246  -1.193055  -0.492534  1.753026  -3.29519  -1.258659  4.815216  -3.295189  -1.258659  4.815216  -17.747335  27.248544  3.220724  102.069512  69.274048  -179.040788  -31.405875  13.285562  100.150827  63.428461  0.64166  -9.396453  14.022463  -12.845858  20.578646  74.096585  62.857179  -2.38835  -23.319134  -20.602972  -103.807  61.841386  7.400024  2.711743  7.205766  0.254605  -4.19288  5.406364  0.141544  -3.148176  
0.0  101.685394  0.0  -0.483753  14.980668  -98.712024  30.016711  -22.448448  -8.761102  -12.325592  13.300546  35.58841  7.287735  3.674416  4.52882  -18.489716  15.275584  -9.214493  5.603455  3.280654  31.100027  1.531797  4.276038  -2.811633  -1.562872  -0.547847  1.651754  -4.307662  -1.389272  4.548757  -4.307662  -1.389272  4.548757  -18.606634  27.542903  2.866567  100.936065  69.122084  -179.779026  -31.360134  13.303062  99.763082  63.552644  0.93648  -9.492579  14.017678  -12.701175  20.202465  72.779655  63.173695  -2.32811  -22.79421  -21.190451  -105.207779  61.556698  6.639978  3.799862  6.684761  0.044598  -4.208172  5.01416  -0.012587  -3.157064  
0.0  101.685394  0.0  -1.076194  19.161921  -98.438894  28.899366  -22.426699  -10.072427  -13.867482  13.888151  34.918983  6.71204  3.413179  4.395624  -20.017759  15.359146  -8.211218  3.39332  3.849653  30.301033  1.332814  4.120884  -2.948897  -1.943625  -0.575706  1.508527  -5.347033  -1.450595  4.167222  -5.347032  -1.450595  4.167222  -19.308525  27.758734  2.687123  99.795994  68.482447  179.85141  -31.20218  12.932727  99.068866  63.631303  1.053339  -9.374444  13.990919  -12.694712  19.959698  71.205867  63.432425  -2.008047  -22.092874  -21.649792  -107.174615  61.103997  5.894797  5.052758  5.973553  -0.348937  -4.081299  4.478058  -0.301647  -3.0579  
0.0  101.685394  0.0  -1.613699  23.592097  -98.388151  27.800599  -22.403787  -10.970496  -15.617459  14.487581  33.803348  6.178752  3.078001  4.271149  -21.498812  15.531111  -6.885602  1.163112  4.362323  29.304544  1.061526  3.864139  -3.058677  -2.296335  -0.548865  1.375359  -6.306517  -1.367658  3.808105  -6.306517  -1.367658  3.808105  -19.941361  27.831936  2.472834  98.706525  67.325914  179.846468  -30.887843  12.235225  98.186443  63.652677  1.291911  -9.506749  13.992832  -12.789028  19.692329  69.349465  63.58657  -1.464643  -21.439113  -21.757429  -109.485335  60.546203  5.125994  6.320013  5.034541  -0.932277  -3.908931  3.770043  -0.731504  -2.924189  
0.0  101.685394  0.0  -2.06472  28.1555  -98.740877  26.672624  -22.548475  -11.231207  -17.54825  15.138336  32.253661  5.747404  2.741511  4.135395  -22.878989  15.876921  -5.140225  -0.821798  4.709916  28.155216  0.653304  3.546213  -3.125508  -2.610797  -0.468308  1.286071  -7.159596  -1.139236  3.561485  -7.159595  -1.139236  3.561485  -20.214124  27.839091  2.363443  97.678714  65.785447  -179.702861  -30.188033  11.343093  97.284736  63.493402  1.800048  -10.345298  14.076626  -12.808752  19.372708  67.37616  63.690816  -0.737706  -20.61832  -21.296668  -112.188165  60.08042  4.402896  7.981442  3.86266  -1.639288  -3.684169  2.887038  -1.252863  -2.752706  
0.0  101.685394  0.0  -2.437942  32.780559  -99.468281  25.36583  -22.875476  -10.796904  -19.494699  15.803994  30.326463  5.420088  2.424368  3.98802  -24.023867  16.305192  -3.023205  -2.451088  4.919928  26.91305  0.024032  3.209477  -3.176107  -2.909839  -0.353058  1.25183  -7.969956  -0.812704  3.45866  -7.969955  -0.812704  3.45866  -19.780227  27.828352  2.081468  97.043535  63.670867  -178.372229  -28.952202  10.651393  96.54247  63.390196  3.017598  -12.225878  14.323277  -12.496529  19.040246  65.686704  63.958617  0.094371  -20.351904  -19.740933  -114.229581  59.406019  4.05202  9.534597  2.600091  -2.324957  -3.460118  1.936705  -1.75854  -2.584893  
0.0  101.685394  0.0  -2.788007  37.411608  -100.254388  23.678144  -23.286716  -9.908261  -21.120966  16.331742  28.14585  4.972961  2.178347  3.716169  -25.046603  16.675706  -0.862555  -3.80042  5.046485  25.56044  -0.800416  2.890042  -3.203362  -3.248157  -0.214631  1.246866  -8.886977  -0.418061  3.429953  -8.886976  -0.418061  3.429953  -18.254175  27.485504  1.418668  96.953958  60.848407  -176.383476  -27.013198  10.34356  96.911235  63.268461  5.383179  -15.56607  15.157344  -11.798481  18.706521  63.813703  64.666644  0.350649  -20.890138  -18.719407  -115.080145  60.251717  3.291396  10.116145  1.514633  -2.921921  -3.359381  1.119695  -2.199859  -2.51176  
